<?xml version="1.0" encoding="utf-8"?>
<!-- Generator: Adobe Illustrator 24.3.0, SVG Export Plug-In . SVG Version: 6.00 Build 0)  -->
<svg version="1.1" id="Layer_1" xmlns="http://www.w3.org/2000/svg" xmlns:xlink="http://www.w3.org/1999/xlink" x="0px" y="0px"
	 viewBox="0 0 204 29" style="enable-background:new 0 0 204 29;" xml:space="preserve">
<style type="text/css">
	.st0{fill:#FBC322;}
	.st1{fill:#ffffff;}
	.st2{fill:url(#SVGID_1_);}
	.st3{fill:#010101;}
	.st4{fill:url(#SVGID_2_);}
</style>
<path class="st0" d="M27.2,3l18.4-0.4c0,0,2.1,0.1,6.9,0s10.8-0.1,13.2-0.2c2.3-0.1,5.4,0,5.4,0l3.5,1c0,0,2.9,0.8,3.7,1.4
	c0.7,0.6,1.2,0.5,2,1.5s2.3,3.7,2.3,3.7l1.4,3.3l1.9,5.7c0,0,0.8,2.9-0.5,4.3c-1.3,1.4-2.7,2.3-5,2.4c-2.3,0.1-3.7-0.6-9-0.6
	c-5.3,0-8.3,0-11.9,0c-3.6,0-5.9-0.5-10.2-0.5s-6.4-0.4-9.3-0.2s-7.7-0.1-8.9-0.1c-1.1,0-3.7-1.3-4.8-1.7s-3-3.1-3-3.9
	c0-0.8-0.2-4.4,0.1-5.4s0.3-2.8,0.6-3.5s0.7-3.5,0.7-3.5L27.2,3z"/>
<g>
	<g>
		<path class="st1" d="M148.5,19.3v4h-1.1v-9.7h2.6c1.2,0,2.1,0.2,2.6,0.7c0.6,0.5,0.8,1.1,0.8,2c0,1.3-0.6,2.1-1.9,2.6l2.6,4.3
			h-1.3l-2.3-4L148.5,19.3L148.5,19.3z M148.5,18.3h1.5c0.8,0,1.4-0.2,1.7-0.5c0.4-0.3,0.6-0.8,0.6-1.4s-0.2-1.1-0.6-1.4
			s-1-0.4-1.8-0.4h-1.5v3.7H148.5z"/>
		<path class="st1" d="M164.1,18.5c0,1.5-0.4,2.8-1.2,3.6c-0.8,0.9-1.9,1.3-3.3,1.3c-1.4,0-2.5-0.4-3.3-1.3s-1.2-2.1-1.2-3.7
			s0.4-2.8,1.2-3.7s1.9-1.3,3.3-1.3c1.4,0,2.5,0.4,3.2,1.3C163.7,15.7,164.1,16.9,164.1,18.5z M156.4,18.5c0,1.3,0.3,2.3,0.8,3
			c0.6,0.7,1.4,1,2.4,1c1.1,0,1.9-0.3,2.4-1s0.8-1.7,0.8-3s-0.3-2.3-0.8-3c-0.5-0.7-1.3-1-2.4-1c-1.1,0-1.9,0.3-2.4,1
			C156.7,16.2,156.4,17.2,156.4,18.5z"/>
		<path class="st1" d="M172.3,23.3l-1.2-3.1h-3.9l-1.2,3.1h-1.1l3.8-9.7h0.9l3.8,9.7H172.3z M170.7,19.2l-1.1-3
			c-0.1-0.4-0.3-0.8-0.4-1.4c-0.1,0.4-0.2,0.9-0.4,1.4l-1.1,3H170.7z"/>
		<path class="st1" d="M182.5,18.4c0,1.6-0.4,2.8-1.3,3.7c-0.9,0.8-2.1,1.3-3.7,1.3h-2.7v-9.7h3c1.5,0,2.7,0.4,3.5,1.2
			S182.5,16.9,182.5,18.4z M181.3,18.4c0-1.3-0.3-2.2-0.9-2.8c-0.6-0.6-1.6-1-2.8-1H176v7.7h1.4c1.3,0,2.3-0.3,3-1
			C181,20.7,181.3,19.7,181.3,18.4z"/>
	</g>
	<g>
		<path class="st0" d="M48.1,11.9c-0.7,0-1.3,0.3-1.8,0.8s-0.7,1.3-0.7,2.2h5c0-1-0.3-1.7-0.7-2.2C49.3,12.1,48.8,11.9,48.1,11.9z"
			/>
		<path class="st0" d="M81.1,5.3C78.9,2,75.2,0,71.2,0H23c-0.8,0-1.4,0.6-1.4,1.4v15.3c0,5.9,4.8,10.8,10.7,10.8L96.1,28L81.1,5.3z
			 M39.3,20c-0.6,0.9-1.3,1.5-2.4,1.9c-1,0.4-2.3,0.6-3.8,0.6c-2.2,0-3.9-0.5-5.1-1.5s-1.9-2.5-2.1-4.5l3.4-0.3
			c0.2,1.1,0.6,2,1.3,2.5c0.6,0.5,1.5,0.8,2.5,0.8c1.1,0,2-0.2,2.6-0.7s0.9-1,0.9-1.7c0-0.4-0.1-0.8-0.4-1.1
			c-0.2-0.3-0.7-0.5-1.3-0.8c-0.4-0.1-1.4-0.4-2.8-0.8c-1.9-0.5-3.2-1-4-1.7c-1.1-1-1.6-2.1-1.6-3.5c0-0.9,0.3-1.7,0.8-2.5
			s1.2-1.4,2.2-1.8c0.9-0.4,2.1-0.6,3.4-0.6c2.2,0,3.8,0.5,4.9,1.4c1.1,1,1.7,2.2,1.7,3.8L36,9.7C36,9,35.6,8.4,35.1,8
			c-0.5-0.4-1.2-0.6-2.2-0.6S31.1,7.6,30.5,8C30.1,8.3,30,8.7,30,9.1c0,0.4,0.2,0.8,0.5,1.1c0.4,0.4,1.5,0.8,3.2,1.2s3,0.8,3.8,1.3
			c0.8,0.4,1.5,1,1.9,1.8c0.5,0.7,0.7,1.7,0.7,2.8C40.1,18.2,39.9,19.1,39.3,20z M53.9,16.9h-8.4c0,1,0.3,1.8,0.8,2.3
			c0.5,0.6,1.2,0.8,1.9,0.8c0.5,0,1-0.1,1.3-0.4c0.2-0.2,0.4-0.5,0.6-0.8h3.5l0,0c-0.4,1.2-1.1,2.1-2,2.8c-0.9,0.6-2.1,1-3.5,1
			c-2.2,0-3.8-0.7-4.9-2.2c-0.8-1.1-1.2-2.6-1.2-4.3c0-2.1,0.5-3.7,1.6-4.9s2.5-1.8,4.1-1.8c1.9,0,3.4,0.6,4.4,1.9
			C53.4,12.4,53.9,14.3,53.9,16.9z M67.4,16.9H59c0,1,0.3,1.8,0.8,2.3c0.5,0.6,1.2,0.8,1.9,0.8c0.5,0,1-0.1,1.3-0.4
			c0.2-0.2,0.4-0.5,0.6-0.8h3.5l0,0c-0.4,1.2-1.1,2.1-2,2.8c-0.9,0.6-2.1,1-3.5,1c-2.2,0-3.8-0.7-4.9-2.2c-0.8-1.1-1.2-2.6-1.2-4.3
			c0-2.1,0.5-3.7,1.6-4.9s2.5-1.8,4.1-1.8c1.9,0,3.4,0.6,4.4,1.9C67,12.4,67.5,14.3,67.4,16.9z M74.9,16.6l-1.6,1.6v4H70V4.8h3.3V14
			l3.9-4.4h4.1L77,14.2l4.6,8H78L74.9,16.6z"/>
		<path class="st0" d="M61.6,11.9c-0.7,0-1.3,0.3-1.8,0.8s-0.7,1.3-0.7,2.2h5c0-1-0.3-1.7-0.7-2.2C62.9,12.1,62.3,11.9,61.6,11.9z"
			/>
		<path class="st0" d="M37.5,12.6c-0.8-0.4-2.1-0.8-3.8-1.3c-1.7-0.4-2.8-0.8-3.2-1.2c-0.4-0.2-0.5-0.6-0.5-1c0-0.5,0.2-0.8,0.6-1.1
			C31.2,7.6,32,7.4,33,7.4s1.7,0.2,2.2,0.6c0.5,0.4,0.8,1,1,1.9l3.5-0.2C39.6,8.2,39,6.9,37.9,6c-1.1-1-2.8-1.4-4.9-1.4
			c-1.3,0-2.5,0.2-3.4,0.6s-1.7,1-2.2,1.8s-0.8,1.6-0.8,2.5c0,1.4,0.5,2.5,1.6,3.5c0.8,0.7,2.1,1.3,4,1.7c1.5,0.4,2.4,0.6,2.8,0.8
			c0.6,0.2,1,0.5,1.3,0.8c0.2,0.3,0.4,0.6,0.4,1.1c0,0.6-0.3,1.2-0.9,1.7c-0.6,0.5-1.4,0.7-2.6,0.7c-1.1,0-1.9-0.3-2.5-0.8
			s-1-1.4-1.3-2.5L26,16.6c0.2,1.9,0.9,3.4,2.1,4.5c1.2,1,2.9,1.5,5.1,1.5c1.5,0,2.8-0.2,3.8-0.6s1.8-1.1,2.4-1.9
			c0.6-0.9,0.8-1.8,0.8-2.8c0-1.1-0.2-2-0.7-2.8C39,13.6,38.3,13,37.5,12.6z"/>
		<path class="st1" d="M37.5,12.6c-0.8-0.4-2.1-0.8-3.8-1.3c-1.7-0.4-2.8-0.8-3.2-1.2c-0.4-0.2-0.5-0.6-0.5-1c0-0.5,0.2-0.8,0.6-1.1
			C31.2,7.6,32,7.4,33,7.4s1.7,0.2,2.2,0.6c0.5,0.4,0.8,1,1,1.9l3.5-0.2C39.6,8.2,39,6.9,37.9,6c-1.1-1-2.8-1.4-4.9-1.4
			c-1.3,0-2.5,0.2-3.4,0.6s-1.7,1-2.2,1.8s-0.8,1.6-0.8,2.5c0,1.4,0.5,2.5,1.6,3.5c0.8,0.7,2.1,1.3,4,1.7c1.5,0.4,2.4,0.6,2.8,0.8
			c0.6,0.2,1,0.5,1.3,0.8c0.2,0.3,0.4,0.6,0.4,1.1c0,0.6-0.3,1.2-0.9,1.7c-0.6,0.5-1.4,0.7-2.6,0.7c-1.1,0-1.9-0.3-2.5-0.8
			s-1-1.4-1.3-2.5L26,16.6c0.2,1.9,0.9,3.4,2.1,4.5c1.2,1,2.9,1.5,5.1,1.5c1.5,0,2.8-0.2,3.8-0.6s1.8-1.1,2.4-1.9
			c0.6-0.9,0.8-1.8,0.8-2.8c0-1.1-0.2-2-0.7-2.8C39,13.6,38.3,13,37.5,12.6z"/>
		<polygon class="st0" points="77.1,14.2 81.4,9.6 77.3,9.6 73.4,14.1 73.4,4.8 70,4.8 70,22.2 73.4,22.2 73.4,18.2 74.9,16.6 
			78.1,22.2 81.7,22.2 		"/>
		<polygon class="st1" points="77.1,14.2 81.4,9.6 77.3,9.6 73.4,14.1 73.4,4.8 70,4.8 70,22.2 73.4,22.2 73.4,18.2 74.9,16.6 
			78.1,22.2 81.7,22.2 		"/>
		<path class="st0" d="M47.9,9.3c-1.7,0-3.1,0.6-4.1,1.8c-1.1,1.2-1.6,2.8-1.6,4.9c0,1.8,0.4,3.2,1.2,4.3c1.1,1.4,2.7,2.2,4.9,2.2
			c1.4,0,2.5-0.3,3.5-1c0.9-0.6,1.6-1.6,2-2.8l0,0h-3.5c-0.2,0.4-0.4,0.6-0.6,0.8c-0.4,0.3-0.8,0.4-1.3,0.4c-0.8,0-1.4-0.3-1.9-0.8
			c-0.5-0.6-0.8-1.3-0.8-2.3h8.4c0-2.6-0.5-4.5-1.6-5.7C51.2,9.9,49.8,9.3,47.9,9.3z M45.6,14.8c0-0.9,0.2-1.6,0.7-2.2
			c0.5-0.5,1.1-0.8,1.8-0.8s1.3,0.3,1.7,0.8c0.5,0.5,0.7,1.2,0.7,2.2H45.6z"/>
		<path class="st1" d="M47.9,9.3c-1.7,0-3.1,0.6-4.1,1.8c-1.1,1.2-1.6,2.8-1.6,4.9c0,1.8,0.4,3.2,1.2,4.3c1.1,1.4,2.7,2.2,4.9,2.2
			c1.4,0,2.5-0.3,3.5-1c0.9-0.6,1.6-1.6,2-2.8l0,0h-3.5c-0.2,0.4-0.4,0.6-0.6,0.8c-0.4,0.3-0.8,0.4-1.3,0.4c-0.8,0-1.4-0.3-1.9-0.8
			c-0.5-0.6-0.8-1.3-0.8-2.3h8.4c0-2.6-0.5-4.5-1.6-5.7C51.2,9.9,49.8,9.3,47.9,9.3z M45.6,14.8c0-0.9,0.2-1.6,0.7-2.2
			c0.5-0.5,1.1-0.8,1.8-0.8s1.3,0.3,1.7,0.8c0.5,0.5,0.7,1.2,0.7,2.2H45.6z"/>
		<path class="st0" d="M61.4,9.3c-1.7,0-3.1,0.6-4.1,1.8c-1.1,1.2-1.6,2.8-1.6,4.9c0,1.8,0.4,3.2,1.2,4.3c1.1,1.4,2.7,2.2,4.9,2.2
			c1.4,0,2.5-0.3,3.5-1c0.9-0.6,1.6-1.6,2-2.8l0,0h-3.5c-0.2,0.4-0.4,0.6-0.6,0.8c-0.4,0.3-0.8,0.4-1.3,0.4c-0.8,0-1.4-0.3-1.9-0.8
			c-0.5-0.6-0.8-1.3-0.8-2.3h8.4c0-2.6-0.5-4.5-1.6-5.7C64.8,9.9,63.3,9.3,61.4,9.3z M59.1,14.8c0-0.9,0.2-1.6,0.7-2.2
			c0.5-0.5,1.1-0.8,1.8-0.8s1.3,0.3,1.7,0.8c0.5,0.5,0.7,1.2,0.7,2.2H59.1z"/>
		<path class="st1" d="M61.4,9.3c-1.7,0-3.1,0.6-4.1,1.8c-1.1,1.2-1.6,2.8-1.6,4.9c0,1.8,0.4,3.2,1.2,4.3c1.1,1.4,2.7,2.2,4.9,2.2
			c1.4,0,2.5-0.3,3.5-1c0.9-0.6,1.6-1.6,2-2.8l0,0h-3.5c-0.2,0.4-0.4,0.6-0.6,0.8c-0.4,0.3-0.8,0.4-1.3,0.4c-0.8,0-1.4-0.3-1.9-0.8
			c-0.5-0.6-0.8-1.3-0.8-2.3h8.4c0-2.6-0.5-4.5-1.6-5.7C64.8,9.9,63.3,9.3,61.4,9.3z M59.1,14.8c0-0.9,0.2-1.6,0.7-2.2
			c0.5-0.5,1.1-0.8,1.8-0.8s1.3,0.3,1.7,0.8c0.5,0.5,0.7,1.2,0.7,2.2H59.1z"/>
	</g>
	<path class="st1" d="M95.4,23.3h3.2l-6-8.9c0,0,1.9-0.4,3.1-1.6c0.9-0.9,1.3-2.1,1.3-3.5c0-1.1-0.3-2-0.8-2.9s-1.3-1.5-2.1-1.8
		C93.2,4.2,91.9,4,90.2,4h-6.9l1.3,2.1h5.7c1.4,0,2.5,0.3,3.1,0.9c0.7,0.6,1,1.3,1,2.3c0,0.6-0.2,1.2-0.5,1.7s-0.8,0.9-1.5,1.2
		c-0.7,0.2-1.6,0.4-2.7,0.4h-1.4l4,5.8c0.2,0.3,0.4,0.6,0.6,0.9L95.4,23.3z"/>
	<rect x="100.8" y="4" class="st1" width="2.4" height="2.7"/>
	<rect x="100.8" y="9.3" class="st1" width="2.4" height="14"/>
	<path class="st1" d="M116,9.3V11c-1.1-1.3-2.4-2-4.1-2c-1.2,0-2.3,0.3-3.2,0.9c-0.9,0.6-1.6,1.5-2.1,2.6s-0.7,2.4-0.7,3.7
		c0,1.9,0.5,3.6,1.6,5s2.5,2.1,4.5,2.1c1.5,0,2.8-0.6,3.9-1.8c0,1.5,0,2.6-0.2,3c-0.2,0.8-0.6,1.4-1.2,1.8S113.1,27,112,27
		c-1,0-1.8-0.2-2.4-0.7c-0.4-0.3-0.7-0.8-0.8-1.6l-2.3-0.3c0,1.5,0.5,2.6,1.5,3.4s2.4,1.1,4,1.1c1.4,0,2.6-0.3,3.6-0.8
		s1.7-1.2,2.1-2.2c0.4-0.9,0.7-2.5,0.7-4.6v-12H116z M114.9,20.1c-0.3,0.3-0.6,0.6-0.9,0.8c-0.3,0.2-0.7,0.3-1.1,0.4
		c-0.1,0-0.3,0-0.4,0.1c-0.1,0-0.3,0-0.4,0l0,0l0,0c-0.3,0-0.5,0-0.8-0.1c-0.1,0-0.2-0.1-0.4-0.1c-0.6-0.2-1.1-0.6-1.6-1.1
		s-0.8-1.2-0.9-2.2c0-0.2-0.1-0.4-0.1-0.6c0-0.4-0.1-0.8-0.1-1.3c0-0.6,0.1-1.2,0.2-1.7c0.2-0.9,0.5-1.6,1-2.1
		c0.7-0.9,1.6-1.3,2.7-1.3l0,0l0,0c0.1,0,0.3,0,0.4,0s0.3,0,0.4,0.1c0.6,0.1,1.1,0.4,1.5,0.8c0.2,0.1,0.3,0.3,0.4,0.4
		c0.8,0.9,1.1,2.2,1.1,3.9C116,17.9,115.6,19.3,114.9,20.1z"/>
	
		<linearGradient id="SVGID_1_" gradientUnits="userSpaceOnUse" x1="19.8073" y1="19" x2="138.2863" y2="19" gradientTransform="matrix(1 0 0 -1 0 30)">
		<stop  offset="0" style="stop-color:#27397C"/>
		<stop  offset="1" style="stop-color:#253B80"/>
	</linearGradient>
	<path class="st2" d="M112.1,11L112.1,11c0.1,0,0.3,0,0.4,0C112.3,11,112.2,11,112.1,11z"/>
	<path class="st3" d="M112.1,21.4L112.1,21.4c-0.3,0-0.5,0-0.8-0.1C111.6,21.3,111.8,21.4,112.1,21.4z"/>
	
		<linearGradient id="SVGID_2_" gradientUnits="userSpaceOnUse" x1="19.3526" y1="18.6" x2="138.4111" y2="18.6" gradientTransform="matrix(1 0 0 -1 0 30)">
		<stop  offset="0" style="stop-color:#27397C"/>
		<stop  offset="1" style="stop-color:#253B80"/>
	</linearGradient>
	<path class="st4" d="M112.8,11c0.6,0.1,1.1,0.4,1.5,0.8C113.9,11.4,113.4,11.2,112.8,11z"/>
	<path class="st1" d="M131,9.6c-0.8-0.4-1.7-0.6-2.7-0.6c-1.7,0-3.1,0.6-4.2,1.9V4h-2.4v19.3h2.4v-7.7c0-1.1,0.1-2,0.4-2.6
		c0.3-0.6,0.7-1.1,1.3-1.5c0.6-0.4,1.3-0.5,2-0.5c0.9,0,1.7,0.3,2.2,0.8s0.8,1.4,0.8,2.6v8.9h2.4v-8.9c0-1.4-0.2-2.4-0.5-3.1
		C132.3,10.6,131.8,10,131,9.6z"/>
	<path class="st1" d="M142,21.2c-0.4,0.1-0.8,0.1-1,0.1c-0.4,0-0.6-0.1-0.8-0.2s-0.3-0.3-0.4-0.5c-0.1-0.2-0.1-0.6-0.1-1.3v-8.2h2.4
		V9.3h-2.4V4.4l-2.4,1.4v3.5h-1.7v1.8h1.7v8.1c0,1.4,0.1,2.4,0.3,2.8s0.5,0.8,1,1.1c0.5,0.3,1.1,0.4,2,0.4c0.5,0,1.1-0.1,1.8-0.2
		L142,21.2z"/>
</g>
<g>
	<path class="st1" d="M147.8,5.3c-0.3-0.5-0.6-1-0.9-1.4c0,0.7,0,1.4,0,2.2c-0.1,0-0.2,0-0.4,0c0-0.9,0-1.8,0-2.7c0.1,0,0.3,0,0.4,0
		c0,0,0,0,0,0c0.2,0.4,0.5,0.8,0.7,1.1c0,0,0,0.1,0.1,0.1c0.1-0.1,0.1-0.2,0.2-0.3c0.2-0.3,0.4-0.7,0.6-1c0,0,0,0,0.1,0
		c0.1,0,0.3,0,0.4,0c0,0.9,0,1.8,0,2.7c-0.1,0-0.2,0-0.4,0c0-0.7,0-1.4,0-2.2c0,0,0,0,0,0C148.4,4.4,148.1,4.8,147.8,5.3z"/>
	<path class="st1" d="M145.5,6c-0.1,0-0.2,0-0.4,0c0-0.8,0-1.6,0-2.3c-0.2,0-0.5,0-0.7,0c0-0.1,0-0.2,0-0.4c0.6,0,1.2,0,1.8,0
		c0,0.1,0,0.2,0,0.4c-0.2,0-0.5,0-0.7,0C145.5,4.5,145.5,5.3,145.5,6z"/>
</g>
</svg>
